<svg width="64" height="58" viewBox="0 0 64 58" fill="none" xmlns="http://www.w3.org/2000/svg">
<path d="M7.659 8.68005C7.459 8.77705 6.527 9.17105 6.334 9.17105C5.792 9.17105 5.889 8.33705 5.942 8.04005C6.04 6.61705 7.021 6.17605 8.201 5.48905C9.822 4.55505 15.368 1.26505 16.743 1.26505C18.018 1.26505 19.003 3.91705 19.003 4.65505C19.003 6.07905 19.003 5.93005 11.294 19.042C9.574 21.938 5.548 28.863 5.548 32.152C5.548 32.739 5.694 33.279 5.694 33.868C5.694 34.31 5.45 34.555 5.006 34.555C4.76 34.555 4.222 34.263 3.976 34.115C2.112 33.084 0 32.739 0 30.186C0 27.733 2.112 22.28 3.437 20.072C7.021 14.134 10.998 8.87405 12.423 7.01205L12.322 6.91405L7.659 8.68105M40.566 9.50905C40.566 18.018 32.855 29.629 22.174 30.383C18.1 30.693 15.705 26.66 15.705 22.894C15.705 17.884 18.896 12.39 22.174 8.75405C26.077 4.45405 32.855 0.998047 35.736 0.998047C37.553 0.998047 39.726 3.12405 39.726 4.10105C39.726 4.58605 38.661 4.58605 38.347 4.89805C40.345 5.51905 40.566 7.73405 40.566 9.50705M31.615 19.876C33.565 17.703 37.333 12.43 37.333 9.50605C37.333 8.57605 36.891 6.89305 35.648 6.89305C34.498 6.89305 33.342 8.52905 32.9 8.52905C32.547 8.52905 32.458 7.99905 32.458 7.73405C24.481 12.212 20.98 18.503 20.713 23.067C20.666 23.909 20.846 26.48 22.088 26.48C23.416 26.48 26.252 24.795 27.272 23.869L31.615 19.876ZM63.979 8.95505C63.979 16.908 56.773 27.761 46.788 28.465C42.974 28.756 40.738 24.986 40.738 21.465C40.738 16.782 43.72 11.648 46.788 8.25205C50.433 4.23205 56.773 1.00105 59.465 1.00105C61.165 1.00105 63.194 2.99005 63.194 3.90305C63.194 4.35605 62.2 4.35605 61.909 4.65005C63.774 5.22705 63.979 7.29605 63.979 8.95605M55.615 18.648C57.438 16.618 60.959 11.688 60.959 8.95605C60.959 8.08405 60.543 6.51205 59.383 6.51205C58.307 6.51205 57.23 8.04505 56.815 8.04505C56.481 8.04505 56.399 7.54705 56.399 7.29605C48.944 11.481 45.67 17.366 45.423 21.63C45.38 22.418 45.546 24.821 46.704 24.821C47.948 24.821 50.595 23.245 51.555 22.377L55.615 18.648M57.834 36.479C58.258 37.665 57.636 38.554 56.358 39.006C55.586 39.283 54.06 39.049 53.309 38.874C43.73 36.725 26.983 36.41 17.331 39.853C15.724 40.428 14.185 41.199 12.647 41.969C12.736 42.049 12.879 42.275 12.932 42.425C13.144 43.014 11.424 43.796 10.978 43.956C9.04 44.644 6.473 44.114 5.821 42.29C4.413 38.339 12.458 35.303 15.565 34.197C22.389 31.761 30.316 31.381 37.357 31.655C41.528 31.779 56.477 32.68 57.834 36.479Z" fill="#EC1C24"/>
<path d="M61.0401 45.0402C61.5421 46.2592 60.8631 47.2482 59.4391 47.8372C58.5731 48.1902 56.8591 48.0672 56.0061 47.9442C45.1941 46.4622 26.3741 47.5102 15.6061 51.9442C13.8101 52.6832 12.1011 53.6232 10.3891 54.5652C10.4911 54.6392 10.6551 54.8692 10.7211 55.0212C10.9731 55.6292 9.06011 56.5972 8.55811 56.8032C6.39311 57.6932 3.50111 57.3422 2.72711 55.4652C1.05811 51.4112 10.0311 47.5352 13.4941 46.1122C21.1061 42.9752 30.0051 41.9192 37.9201 41.6282C42.6071 41.4172 59.4311 41.1322 61.0401 45.0382" fill="#EC1C24"/>
</svg>
