<svg width="512" height="75" viewBox="0 0 512 75" fill="none" xmlns="http://www.w3.org/2000/svg">
<path d="M254.114 9.182V69.347L247.557 74.629V24.579H235.214L254.114 9.182V9.182ZM481.537 0C487.029 0 492.127 0.828 496.834 2.484C501.362 4.048 505.267 5.807 508.551 7.759L509.124 8.106L502.325 21.049C501.705 20.542 500.829 19.961 499.698 19.308L499.055 18.944L498.362 18.566L497.619 18.173C495.527 17.04 493.043 16.081 490.166 15.297C487.284 14.4243 484.288 13.9835 481.276 13.989C473.083 13.989 468.986 16.299 468.986 20.919C468.986 23.62 470.468 25.538 473.431 26.671L474.107 26.916L474.824 27.165L475.584 27.418L476.388 27.674L477.234 27.935L478.122 28.2C478.274 28.245 478.427 28.29 478.582 28.334L479.535 28.604L480.53 28.88L481.568 29.158L482.648 29.441L483.772 29.728L485.537 30.166L486.767 30.463C491.909 31.77 496.355 33.252 500.103 34.908C503.778 36.495 506.613 38.602 508.607 41.23L508.862 41.576C510.954 44.278 512 47.851 512 52.296C512 57.7 510.605 62.058 507.816 65.371C505.114 68.595 501.541 70.949 497.096 72.431C492.65 73.825 487.856 74.522 482.714 74.522C476.787 74.522 470.904 73.694 465.064 72.038C459.502 70.461 454.534 68.331 450.158 65.647L449.506 65.24L456.566 51.512C457.699 52.645 459.573 53.909 462.188 55.303C464.89 56.698 468.028 57.875 471.601 58.833C475.175 59.793 478.966 60.272 482.976 60.272C490.994 60.272 495.004 58.136 495.004 53.865C495.004 50.989 493.13 48.941 489.382 47.721L488.481 47.404L487.534 47.083L486.543 46.757L485.506 46.425L484.424 46.089L483.297 45.747L482.717 45.575L481.522 45.226L480.282 44.872L478.996 44.513L477.666 44.149L475.586 43.594L474.87 43.406C467.374 41.489 461.796 39.048 458.135 36.085C454.561 33.034 452.775 28.675 452.775 23.01C452.775 17.955 454.038 13.728 456.565 10.329C459.181 6.929 462.667 4.358 467.025 2.615C471.47 0.872 476.308 0 481.537 0ZM360.292 0.13C365.823 0.13 370.873 1.138 375.438 3.153L375.983 3.399C380.69 5.491 384.699 8.324 388.011 11.897C391.411 15.384 394.023 19.35 395.853 23.795C397.683 28.24 398.601 32.772 398.601 37.392C398.601 42.186 397.643 46.805 395.725 51.251C393.808 55.609 391.103 59.531 387.616 63.017C384.217 66.417 380.167 69.118 375.46 71.123C370.754 73.128 365.611 74.13 360.033 74.13C354.28 74.13 349.051 73.128 344.344 71.123C339.637 69.031 335.582 66.243 332.182 62.756C328.783 59.182 326.168 55.173 324.338 50.728C322.51 46.282 321.592 41.706 321.592 37C321.592 32.206 322.552 27.586 324.469 23.141C326.281 18.9269 328.872 15.0929 332.107 11.841L332.577 11.374C336.064 7.888 340.157 5.142 344.864 3.138C349.571 1.133 354.714 0.131 360.292 0.131V0.13ZM44.844 0.524L76.614 73.608H59.88L52.558 56.48H24.187L16.866 73.607H0L31.9 0.523H44.844V0.524ZM138.424 0.524L158.56 26.41L178.693 0.523H195.82L166.926 37.523L194.905 73.607H177.778L158.558 48.767L139.471 73.607H122.082L150.192 37.523L121.167 0.523H138.425L138.424 0.524ZM266.106 0.188V49.093H278.795L259.56 64.877V4.744L266.104 0.188H266.106ZM360.034 14.251C355.24 14.251 351.141 15.384 347.742 17.65C344.429 19.916 341.902 22.792 340.159 26.279C338.415 29.765 337.544 33.383 337.544 37.131C337.544 41.053 338.462 44.801 340.292 48.374C342.12 51.861 344.691 54.694 348.003 56.872C351.403 59.052 355.455 60.141 360.162 60.141C364.956 60.141 369.009 59.008 372.321 56.741C375.636 54.388 378.161 51.468 379.904 47.981C381.647 44.408 382.521 40.748 382.521 37C382.521 33.078 381.606 29.373 379.776 25.887C377.946 22.4 375.331 19.611 371.929 17.519C368.616 15.34 364.653 14.251 360.034 14.251V14.251ZM38.438 19.74L27.717 42.753H48.767L38.437 19.743L38.438 19.74Z" fill="#5A29E4"/>
</svg>
