<svg width="64" height="64" viewBox="0 0 64 64" fill="none" xmlns="http://www.w3.org/2000/svg">
<path d="M40.994 34.9251C40.838 32.4631 40.307 30.4621 38.595 28.4021C35.16 24.2831 27.268 23.5981 23.733 27.5631C23.118 28.1471 22.535 28.8491 21.95 29.6891L20.631 31.5871L19.309 29.6891C18.723 28.8491 18.139 28.1471 17.524 27.5631C13.992 23.5981 6.09803 24.2831 2.66503 28.4021C0.949026 30.4631 0.421026 32.4641 0.264026 34.9251C0.0400256 42.2461 5.35203 48.1081 6.00803 48.9651C9.61303 53.1951 13.547 57.1951 17.542 60.8811C18.1929 61.4483 18.85 62.0083 19.513 62.5611C19.888 62.8691 20.258 63.1771 20.632 63.4821C21.004 63.1771 21.373 62.8691 21.747 62.5611C22.372 62.0391 22.997 61.5131 23.718 60.8811C27.713 57.1951 31.648 53.1951 35.252 48.9651C35.908 48.1061 41.221 42.2451 40.994 34.9251" fill="#D13852"/>
<path d="M38.789 33.6179C38.7879 32.9867 38.6897 32.3594 38.498 31.7579C38.327 31.2079 38.0749 30.6865 37.75 30.2109C35.849 27.4159 31.7 26.4079 28.243 27.1149C26.893 27.4399 25.541 27.9479 24.919 29.2379C24.709 29.7919 25.153 30.0569 25.841 30.0239C28.331 29.7459 31.086 29.9969 33.288 31.0659C33.8324 31.3294 34.3462 31.652 34.82 32.0279C36.401 33.2519 37.082 35.1539 37.394 37.0379C38.161 36.8829 38.58 35.9619 38.678 35.1409C38.7729 34.6382 38.8102 34.1262 38.789 33.6149" fill="#F1A5B1"/>
<path d="M63.753 8.72687C63.635 6.87687 63.237 5.37387 61.95 3.82687C59.37 0.732874 53.441 0.217874 50.786 3.19687C50.324 3.63487 49.887 4.16287 49.447 4.79387L48.456 6.21987L47.463 4.79387C47.023 4.16387 46.584 3.63587 46.122 3.19687C43.469 0.217874 37.539 0.733874 34.96 3.82687C33.671 5.37387 33.274 6.87687 33.156 8.72687C32.988 14.2259 36.978 18.6289 37.47 19.2739C40.178 22.4509 43.133 25.4559 46.134 28.2239C46.677 28.6989 47.146 29.0939 47.614 29.4859C47.896 29.7159 48.174 29.9489 48.455 30.1779C48.734 29.9489 49.012 29.7169 49.293 29.4859C49.763 29.0939 50.231 28.6989 50.773 28.2239C53.773 25.4559 56.729 22.4509 59.437 19.2739C59.932 18.6289 63.922 14.2239 63.753 8.72687Z" fill="#D13852"/>
<path d="M62.0999 7.745C62.0958 7.27113 62.022 6.80043 61.8809 6.348C61.7527 5.93445 61.5633 5.54243 61.3189 5.185C59.8909 3.086 56.7779 2.329 54.1769 2.86C53.1629 3.104 52.1479 3.486 51.6799 4.455C51.5219 4.871 51.856 5.07 52.372 5.045C54.242 4.836 56.3119 5.024 57.9659 5.828C58.3789 6.03 58.765 6.269 59.117 6.55C60.304 7.469 60.8159 8.898 61.0499 10.316C61.6269 10.2 61.9419 9.507 62.0149 8.891C62.0839 8.51 62.1189 8.123 62.0999 7.745" fill="#F1A5B1"/>
</svg>
