<svg width="64" height="64" viewBox="0 0 64 64" fill="none" xmlns="http://www.w3.org/2000/svg">
<path d="M63.841 18.6458C63.595 14.7958 62.769 11.6688 60.089 8.4478C54.72 2.0088 42.379 0.936804 36.859 7.1358C35.896 8.0478 34.987 9.1458 34.074 10.4578L32.008 13.4268L29.941 10.4578C29.025 9.1458 28.114 8.0468 27.151 7.1358C21.627 0.936804 9.28702 2.0078 3.92102 8.4478C1.23702 11.6688 0.412023 14.7958 0.166023 18.6458C-0.183977 30.0918 8.12202 39.2568 9.14702 40.5998C14.784 47.2128 20.933 53.4658 27.177 59.2268C28.307 60.2158 29.283 61.0388 30.259 61.8548C30.846 62.3338 31.425 62.8188 32.008 63.2948C32.59 62.8178 33.167 62.3338 33.751 61.8548C34.731 61.0388 35.707 60.2158 36.833 59.2268C43.08 53.4658 49.23 47.2168 54.873 40.5998C55.898 39.2568 64.205 30.0918 63.852 18.6458" fill="#D13852"/>
<path d="M60.39 16.604C60.3803 15.6172 60.2264 14.6372 59.933 13.695C59.6657 12.8348 59.2717 12.0191 58.764 11.275C55.791 6.906 49.313 5.332 43.901 6.438C41.79 6.946 39.676 7.74 38.704 9.756C38.373 10.621 39.069 11.037 40.144 10.984C44.038 10.549 48.346 10.941 51.789 12.614C52.647 13.034 53.45 13.532 54.184 14.117C56.654 16.03 57.721 19.004 58.204 21.954C59.405 21.712 60.058 20.271 60.214 18.989C60.3635 18.2033 60.4229 17.4031 60.391 16.604" fill="#F1A5B1"/>
</svg>
