<svg width="64" height="64" viewBox="0 0 64 64" fill="none" xmlns="http://www.w3.org/2000/svg">
<g clip-path="url(#clip0_102_8)">
<path d="M63.66 31.765C63.66 49.252 49.484 63.426 31.998 63.426C14.511 63.426 0.335999 49.252 0.335999 31.765C0.335999 14.276 14.511 0.103027 31.998 0.103027C49.484 0.103027 63.66 14.276 63.66 31.765Z" fill="#FBBF67"/>
<path d="M51.894 39.0801C51.894 49.9761 43.054 58.8151 32.158 58.8151C21.268 58.8151 12.428 49.9751 12.428 39.0801" fill="#633D19"/>
<path d="M48.51 41.0698C48.51 45.4208 41.038 48.9538 31.826 48.9538C22.621 48.9538 15.147 45.4208 15.147 41.0698" fill="white"/>
<path d="M19.13 34.5528C19.65 34.7768 20.093 34.9628 20.541 35.1448L21.37 35.4828C21.523 35.2468 21.69 34.9928 21.854 34.7328C22.117 34.3248 22.377 33.9148 22.628 33.5078C25.859 27.8598 29.473 21.5418 27.701 15.6708C27.5192 15.1781 27.2856 14.7062 27.004 14.2628C26.6954 13.7757 26.3379 13.3214 25.937 12.9068C24.922 11.9348 23.018 11.4538 21.331 11.7698C18.125 12.3798 17.206 14.5178 16.412 17.0628L15.986 18.4188L14.859 17.5508C12.945 16.0748 11.156 14.9248 8.61002 15.7268C8.34202 15.8118 8.07102 15.9168 7.79202 16.0438C6.23102 16.7528 4.94503 18.2368 4.66803 19.6508C4.5804 20.21 4.5499 20.7765 4.57703 21.3418C4.60403 21.8828 4.69002 22.4248 4.82902 22.9458C6.73102 28.7158 13.32 31.8188 19.13 34.5528M44.891 34.5528C44.373 34.7768 43.928 34.9628 43.48 35.1448C43.205 35.2588 42.927 35.3708 42.65 35.4828C42.5 35.2468 42.333 34.9928 42.167 34.7328C41.902 34.3248 41.647 33.9148 41.394 33.5078C38.163 27.8598 34.547 21.5418 36.321 15.6708C36.486 15.2158 36.728 14.7258 37.018 14.2628C37.3277 13.7759 37.6859 13.3216 38.087 12.9068C39.102 11.9348 41.004 11.4538 42.692 11.7698C45.896 12.3798 46.814 14.5178 47.613 17.0628L48.037 18.4188L49.164 17.5508C51.076 16.0748 52.868 14.9248 55.415 15.7268C55.678 15.8118 55.951 15.9168 56.232 16.0438C57.794 16.7528 59.076 18.2368 59.355 19.6508C59.442 20.1948 59.474 20.7778 59.446 21.3418C59.4194 21.884 59.335 22.4217 59.194 22.9458C57.289 28.7158 50.704 31.8188 44.891 34.5528Z" fill="#D13852"/>
</g>
<defs>
<clipPath id="clip0_102_8">
<rect width="64" height="64" fill="white"/>
</clipPath>
</defs>
</svg>
