<svg width="64" height="64" viewBox="0 0 64 64" fill="none" xmlns="http://www.w3.org/2000/svg">
<path d="M63.841 18.6458C63.596 14.7958 62.77 11.6688 60.089 8.4478C54.721 2.0088 42.379 0.936804 36.859 7.1358C35.896 8.0478 34.988 9.1458 34.074 10.4578L32.01 13.4268L29.943 10.4578C29.027 9.1458 28.116 8.0468 27.153 7.1358C21.627 0.936804 9.28703 2.0078 3.91303 8.4478C1.22903 11.6688 0.404027 14.7958 0.158027 18.6458C-0.191973 30.0918 8.11403 39.2568 9.13903 40.5998C14.776 47.2128 20.925 53.4658 27.169 59.2268C28.299 60.2158 29.275 61.0398 30.251 61.8558C30.838 62.3348 31.417 62.8188 32 63.2948C32.582 62.8178 33.159 62.3338 33.743 61.8558C34.722 61.0408 35.699 60.2158 36.825 59.2268C43.072 53.4658 49.222 47.2168 54.855 40.5998C55.881 39.2568 64.187 30.0918 63.835 18.6458" fill="#64A8DC"/>
<path d="M60.4 16.604C60.3898 15.6173 60.2359 14.6373 59.943 13.695C59.6757 12.8345 59.2814 12.0189 58.773 11.275C55.8 6.906 49.322 5.332 43.91 6.438C41.801 6.946 39.685 7.74 38.715 9.756C38.384 10.621 39.08 11.037 40.154 10.984C44.049 10.549 48.355 10.941 51.8 12.614C52.656 13.034 53.461 13.532 54.196 14.117C56.667 16.03 57.733 19.004 58.216 21.954C59.417 21.712 60.07 20.271 60.226 18.989C60.366 18.196 60.441 17.39 60.402 16.604" fill="#AAD5EE"/>
</svg>
