<svg width="43" height="64" viewBox="0 0 43 64" fill="none" xmlns="http://www.w3.org/2000/svg">
<path d="M34.5221 34.3002C35.6986 34.8147 36.8436 35.3984 37.9511 36.0482L41.0591 37.8832C41.2841 36.6892 41.5961 35.4872 42.0991 34.3002C42.3241 33.7512 42.3401 32.8442 42.1371 31.9532C41.8041 30.5392 40.5391 29.9612 39.5361 29.7242C38.3661 29.4532 37.6221 29.6912 36.6401 30.6722C36.5701 30.8172 34.5221 34.3002 34.5221 34.3002M6.18411 0.198202C3.93811 0.268202 2.66411 1.3212 2.39711 3.3272C2.07711 5.6982 2.01011 11.6862 2.28211 13.9622C2.59811 16.5922 3.04811 19.2632 3.48311 21.8522C3.91311 24.3772 4.35411 26.9912 4.67411 29.5862C4.93611 31.6672 5.08411 33.7602 5.20911 35.8442L9.07611 33.7352C10.4391 32.9902 12.0041 32.4122 13.7221 32.0042L13.0361 30.7222C12.9191 30.5062 12.6061 29.9192 12.4071 25.9622C12.2941 24.0572 12.1901 21.5022 12.0871 18.8802C11.9621 15.6722 11.8291 12.3642 11.6711 10.0222L11.6121 9.1402C11.4791 7.1012 11.3461 4.9952 10.8761 3.0362C10.5731 1.7622 9.75811 0.0862021 6.18411 0.198202M26.0501 29.5322L25.6621 31.7872C28.2179 32.181 30.7238 32.8496 33.1361 33.7812L33.2851 32.7992C33.4891 31.4812 33.5981 30.1952 33.5981 29.0712C33.5981 26.4282 33.0191 24.7572 32.0121 24.4772C30.6221 24.0942 29.4491 24.1942 28.5301 24.7762C27.3111 25.5542 26.4491 27.1982 26.0501 29.5322M17.5631 22.5082C16.1451 22.7162 15.8741 23.5612 15.4791 25.1582C15.3661 25.5992 15.2781 27.0432 15.2151 28.0962C15.1521 29.0772 15.0961 29.9932 15.0291 30.3972L14.7951 31.7872C17.3341 31.3082 20.1471 31.1722 23.1091 31.4302C23.5461 31.4672 23.9661 31.5592 24.3991 31.6092L23.9581 29.5752C23.8751 29.1832 23.7881 28.5172 23.7051 27.8362C23.6261 27.2162 23.5091 26.2752 23.4261 26.0252C23.2591 25.5172 23.0301 24.8692 22.6891 24.3152C21.7661 22.7992 19.9431 22.1592 17.5631 22.5082M5.24911 36.5472C5.30211 37.5332 5.14411 43.0552 5.14411 44.3872C5.14411 45.7182 4.08711 45.7932 4.07611 44.8572C4.06811 43.9172 4.01311 39.1282 4.01311 39.1282C0.214111 40.5262 0.214111 43.0392 0.214111 44.7952C0.214111 45.5272 0.335112 46.3102 0.564112 47.1172C1.98611 52.0682 4.23411 55.9042 7.43711 58.8352C12.7631 63.7242 18.8121 65.2342 25.4201 63.3312C32.3401 61.3402 36.8291 57.3522 38.7731 51.4742C39.6261 48.9142 39.9711 46.1152 40.3081 43.4042L40.5951 41.0832C40.6732 40.4328 40.7592 39.7835 40.8531 39.1352L37.1001 37.9882C26.9551 34.8802 18.2721 34.1602 9.77511 35.7162L5.24911 36.5452" fill="#EFB086"/>
</svg>
