<svg width="28" height="26" viewBox="0 0 28 26" fill="none" xmlns="http://www.w3.org/2000/svg">
<g clip-path="url(#clip0_102_60)">
<path d="M19.401 18.0863C20.4343 17.9821 21.2182 17.1143 21.1825 16.0728C21.147 15.0314 20.2561 14.1982 19.1872 14.1982H19.116C18.0113 14.233 17.1562 15.1355 17.1919 16.2116C17.2275 16.7324 17.4413 17.1837 17.762 17.4961C16.5505 19.822 14.6977 21.523 11.9185 22.9463C10.03 23.9183 8.07034 24.2655 6.11067 24.0225C4.50723 23.8142 3.26014 23.12 2.47614 21.9743C1.33601 20.2733 1.22916 18.4334 2.19122 16.5935C2.86825 15.2744 3.93706 14.3023 4.61409 13.8163C4.47158 13.3651 4.25775 12.6014 4.15089 12.046C-1.01566 15.691 -0.481142 20.6205 1.08664 22.9463C2.26242 24.6821 4.64975 25.7582 7.28645 25.7582C7.99903 25.7582 8.71161 25.6887 9.4243 25.5153C13.9851 24.6474 17.4414 22.009 19.401 18.0863V18.0863ZM25.6722 13.7817C22.9642 10.6921 18.9735 8.9911 14.4127 8.9911H13.8426C13.5219 8.36625 12.8449 7.94961 12.0967 7.94961H12.0253C10.9209 7.98434 10.0658 8.88689 10.1013 9.96312C10.137 11.0045 11.0277 11.8377 12.0967 11.8377H12.1679C12.9517 11.8029 13.6288 11.3169 13.9138 10.6573H14.5552C17.2632 10.6573 19.8286 11.421 22.1447 12.9138C23.9262 14.0594 25.209 15.5522 25.9215 17.3572C26.5273 18.8153 26.4916 20.2386 25.8502 21.4536C24.8526 23.2934 23.178 24.3002 20.9688 24.3002C19.5436 24.3002 18.1896 23.8836 17.4769 23.5711C17.085 23.9183 16.3723 24.4737 15.8735 24.8209C17.4057 25.5152 18.9735 25.8971 20.47 25.8971C23.8906 25.8971 26.4204 24.0571 27.3825 22.2173C28.4157 20.2038 28.3444 16.7324 25.6722 13.7817V13.7817ZM7.57148 18.6763C7.60714 19.7178 8.49789 20.5509 9.56681 20.5509H9.63812C10.7427 20.5162 11.5978 19.6136 11.5621 18.5375C11.5266 17.496 10.6357 16.6629 9.56681 16.6629H9.49561C9.4243 16.6629 9.31733 16.6629 9.24623 16.6975C7.78531 14.337 7.17959 11.7682 7.39342 8.99099C7.53583 6.90812 8.24851 5.10293 9.49561 3.61016C10.5289 2.32572 12.5242 1.70087 13.8783 1.66624C17.6551 1.59676 19.2584 6.17905 19.3654 8.01898C19.8286 8.12308 20.6125 8.36614 21.147 8.53972C20.7193 2.91605 17.1562 0 13.7357 0C10.5289 0 7.57148 2.25646 6.39559 5.58904C4.75661 10.0325 5.82553 14.3023 7.82086 17.6697C7.64279 17.9126 7.53583 18.2945 7.57148 18.6764V18.6763Z" fill="#764ABC"/>
</g>
<defs>
<clipPath id="clip0_102_60">
<rect width="28" height="26" fill="white"/>
</clipPath>
</defs>
</svg>
