<svg width="64" height="64" viewBox="0 0 64 64" fill="none" xmlns="http://www.w3.org/2000/svg">
<g clip-path="url(#clip0_102_18)">
<path d="M50.7131 -0.0371094L34.6431 49.3029H38.6631L54.7331 -0.0371094H50.7131Z" fill="#186193"/>
<path d="M46.6911 -0.0371094L30.6311 49.3029H34.6511L50.7211 -0.0371094H46.6911Z" fill="#D1D3D4"/>
<path d="M42.489 -0.0371094L26.429 49.3029H30.631L46.691 -0.0371094H42.489Z" fill="#C41C5C"/>
<path d="M9.84399 -0.0371094L25.914 49.3029H29.934L13.864 -0.0371094H9.84399Z" fill="#1C75BC"/>
<path d="M13.863 -0.0371094L29.933 49.3029H33.953L17.883 -0.0371094H13.863Z" fill="#E6E7E8"/>
<path d="M17.8831 -0.0371094L33.9531 49.3029H38.1541L22.0941 -0.0371094H17.8831Z" fill="#DA1C5C"/>
<path d="M44.3801 51.1899C44.3801 58.0839 38.7931 63.6699 31.9011 63.6699C25.0101 63.6699 19.4231 58.0829 19.4231 51.1899C19.4231 44.3009 25.0091 38.7119 31.9011 38.7119C38.7931 38.7119 44.3801 44.3009 44.3801 51.1899Z" fill="#F7941E"/>
<path d="M41.4499 51.1902C41.4505 52.4449 41.2037 53.6874 40.7239 54.8467C40.244 56.006 39.5403 57.0594 38.6532 57.9467C37.766 58.834 36.7127 59.5377 35.5534 60.0177C34.3942 60.4977 33.1517 60.7446 31.8969 60.7442C26.6219 60.7442 22.3459 56.4692 22.3459 51.1902C22.3459 45.9172 26.6219 41.6382 31.8969 41.6382C33.1515 41.6379 34.3937 41.8848 35.5528 42.3647C36.7119 42.8447 37.7651 43.5482 38.6522 44.4353C39.5393 45.3223 40.243 46.3754 40.723 47.5344C41.2031 48.6934 41.4501 49.9357 41.4499 51.1902" fill="#F2A755"/>
<path d="M25.462 54.11L25.124 53.368C25.937 53.364 26.984 54.215 27.85 55.089C26.324 51.726 27.05 50.86 27.095 50.814L27.614 51.482C27.602 51.494 26.544 52.755 30.513 58.979H30.511C30.631 59.175 30.643 59.374 30.536 59.423C30.429 59.476 30.239 59.358 30.115 59.161C30.1007 59.1412 30.0889 59.1197 30.08 59.097H30.074C29.543 58.2643 29.0417 57.4131 28.571 56.545C27.949 55.804 26.415 54.106 25.462 54.11" fill="#E29850"/>
<path d="M25.7961 53.6909C25.7961 53.6909 25.6231 53.0399 25.0791 52.8129C24.5341 52.5839 23.8521 53.1159 23.7141 53.4709L23.7881 53.5809C23.7881 53.5809 23.9371 53.5379 24.4581 54.1679C24.9771 54.7969 25.6191 54.1979 25.6191 54.1979L25.8601 54.1249L26.0751 54.0239L25.7961 53.6909M27.0501 51.8289C27.0501 51.8289 26.3431 51.2089 26.4361 50.5209C26.5251 49.8369 27.6751 49.5439 28.2191 49.6639L28.3121 49.8079C28.3121 49.8079 28.1491 49.9239 28.5871 50.8659C29.0261 51.8079 27.8201 52.0119 27.8201 52.0119L27.5581 52.1959L27.2741 52.3329L27.0501 51.8289ZM26.9411 55.5499L26.7471 55.0999C27.2931 55.0709 27.9591 55.5659 28.4991 56.0799C27.6231 54.0369 28.1491 53.4749 28.1801 53.4449L28.5011 53.8429C28.4911 53.8529 27.7261 54.6719 30.1141 58.4109H30.1101C30.1881 58.5279 30.1861 58.6499 30.1101 58.6869C30.0361 58.7219 29.9141 58.6539 29.8391 58.5359C29.8311 58.5239 29.8231 58.5129 29.8191 58.4989H29.8151C29.4962 57.999 29.1973 57.4866 28.9191 56.9629C28.5361 56.5229 27.5821 55.5179 26.9411 55.5499" fill="#E29850"/>
<path d="M27.1799 55.2701C27.1799 55.2701 27.0929 54.8741 26.7389 54.7491C26.3839 54.6251 25.9019 54.9781 25.7959 55.2051L25.8379 55.2731C25.8379 55.2731 25.9429 55.2381 26.2609 55.6131C26.5829 55.9881 27.0379 55.5921 27.0379 55.5921L27.2049 55.5411L27.3539 55.4681L27.1799 55.2701M28.1099 54.0801C28.1099 54.0801 27.6619 53.7171 27.7529 53.2901C27.8419 52.8581 28.6269 52.6381 28.9859 52.6941L29.0439 52.7771C29.0439 52.7771 28.9289 52.8581 29.1819 53.4291C29.4349 54.0001 28.6189 54.1671 28.6189 54.1671L28.4339 54.2911L28.2379 54.3861L28.1099 54.0801M24.1999 51.3001L23.9299 50.7331C24.5089 50.7561 25.2869 51.4241 25.9299 52.1081C24.7189 49.5331 25.1999 48.9041 25.2309 48.8711L25.6259 49.3901C25.6199 49.3981 24.9129 50.3151 27.9739 55.1151H27.9719C28.0669 55.2661 28.0819 55.4161 28.0089 55.4531C27.9309 55.4881 27.7939 55.3941 27.6969 55.2411C27.6864 55.2256 27.678 55.2088 27.6719 55.1911L27.6679 55.1931C27.2589 54.5503 26.8704 53.8946 26.5029 53.2271C26.0309 52.6471 24.8769 51.3271 24.1979 51.3001" fill="#E29850"/>
<path d="M24.421 50.9941C24.421 50.9941 24.272 50.4991 23.878 50.3121C23.482 50.1221 23.018 50.5021 22.936 50.7661L22.99 50.8511C22.99 50.8511 23.097 50.8231 23.489 51.3141C23.882 51.8011 24.313 51.3721 24.313 51.3721L24.483 51.3221L24.633 51.2501L24.421 50.9941ZM25.24 49.6271C25.24 49.6271 24.714 49.1401 24.753 48.6291C24.788 48.1141 25.596 47.9281 25.984 48.0321L26.056 48.1451C26.056 48.1451 25.947 48.2261 26.295 48.9491C26.643 49.6701 25.794 49.7881 25.794 49.7881L25.615 49.9181L25.421 50.0131L25.24 49.6271M38.34 53.9981L38.678 53.2561C37.865 53.2521 36.818 54.1051 35.951 54.9791C37.477 51.6141 36.752 50.7481 36.707 50.7031L36.188 51.3711C36.198 51.3831 37.257 52.6451 33.289 58.8691H33.291C33.171 59.0631 33.159 59.2631 33.266 59.3111C33.373 59.3661 33.564 59.2471 33.688 59.0511C33.702 59.0304 33.7137 59.0083 33.723 58.9851H33.729C34.2606 58.1532 34.7613 57.302 35.23 56.4331C35.853 55.6911 37.385 53.9941 38.34 53.9981" fill="#E29850"/>
<path d="M38.0001 53.5702C38.0001 53.5702 38.1731 52.9222 38.7171 52.6922C39.2631 52.4652 39.9441 52.9982 40.0821 53.3532L40.0081 53.4612C40.0081 53.4612 39.8591 53.4182 39.3381 54.0472C38.8191 54.6792 38.1771 54.0782 38.1771 54.0782L37.9361 54.0072L37.7211 53.9032L38.0001 53.5702ZM36.7521 51.7142C36.7521 51.7142 37.4581 51.0932 37.3651 50.4072C37.2751 49.7212 36.1261 49.4302 35.5821 49.5472L35.4891 49.6912C35.4891 49.6912 35.6521 49.8102 35.2141 50.7522C34.7751 51.6912 35.9811 51.8982 35.9811 51.8982L36.2441 52.0832L36.5271 52.2192L36.7521 51.7142ZM36.8561 55.4402L37.0501 54.9902C36.5041 54.9632 35.8381 55.4562 35.2981 55.9722C36.1741 53.9292 35.6481 53.3672 35.6141 53.3352L35.2961 53.7342C35.3061 53.7422 36.0711 54.5612 33.6831 58.3032L33.6871 58.3012C33.6091 58.4172 33.6111 58.5422 33.6871 58.5762C33.7601 58.6112 33.8831 58.5462 33.9581 58.4272C33.9661 58.4132 33.9741 58.4022 33.9781 58.3912H33.9821C34.3011 57.8906 34.6 57.3776 34.8781 56.8532C35.2621 56.4142 36.2161 55.4082 36.8561 55.4402" fill="#E29850"/>
<path d="M36.613 55.16C36.613 55.16 36.701 54.762 37.054 54.638C37.409 54.516 37.891 54.868 37.997 55.096L37.954 55.162C37.954 55.162 37.85 55.129 37.531 55.504C37.209 55.878 36.755 55.483 36.755 55.483L36.587 55.43L36.438 55.359L36.613 55.16M35.691 53.963C35.691 53.963 36.139 53.598 36.048 53.171C35.958 52.739 35.174 52.52 34.813 52.576L34.756 52.66C34.756 52.66 34.871 52.739 34.616 53.31C34.366 53.88 35.181 54.047 35.181 54.047L35.366 54.172L35.562 54.269L35.691 53.963M39.599 51.18L39.869 50.614C39.288 50.635 38.51 51.305 37.869 51.989C39.081 49.412 38.597 48.783 38.568 48.752L38.173 49.269C38.179 49.279 38.886 50.195 35.825 54.996L35.827 54.994C35.732 55.147 35.717 55.297 35.79 55.332C35.866 55.367 36.006 55.273 36.102 55.122C36.11 55.106 36.122 55.089 36.127 55.071C36.127 55.071 36.131 55.071 36.131 55.073C36.597 54.338 36.98 53.687 37.296 53.106C37.768 52.527 38.921 51.205 39.601 51.18" fill="#E29850"/>
<path d="M39.3801 50.8792C39.3801 50.8792 39.5291 50.3822 39.9221 50.1952C40.3191 50.0072 40.7841 50.3852 40.8651 50.6502L40.8101 50.7352C40.8101 50.7352 40.7041 50.7082 40.3111 51.1972C39.9191 51.6872 39.4881 51.2562 39.4881 51.2562L39.3171 51.2072L39.1681 51.1362L39.3801 50.8792M38.5601 49.5102C38.5601 49.5102 39.0861 49.0232 39.0471 48.5122C39.0121 47.9972 38.2041 47.8122 37.8161 47.9142L37.7451 48.0262C37.7451 48.0262 37.8531 48.1102 37.5061 48.8302C37.1581 49.5532 38.0071 49.6702 38.0071 49.6702L38.1861 49.8022L38.3801 49.8952L38.5601 49.5102" fill="#E29850"/>
</g>
<defs>
<clipPath id="clip0_102_18">
<rect width="64" height="64" fill="white"/>
</clipPath>
</defs>
</svg>
