<svg width="32" height="32" viewBox="0 0 32 32" fill="none" xmlns="http://www.w3.org/2000/svg">
<path d="M22.292 11.7169H22.282C22.2754 11.7153 22.2695 11.7118 22.265 11.7069C22.2567 11.6978 22.2505 11.687 22.2471 11.6752C22.2436 11.6634 22.2429 11.651 22.245 11.6389L22.81 8.18785L25.461 10.8359L22.7 11.9999C22.6924 12.0029 22.6842 12.0046 22.676 12.0049H22.67C22.67 12.0049 22.663 12.0049 22.656 11.9939C22.5525 11.8802 22.4291 11.7863 22.292 11.7169V11.7169ZM26.136 11.5069L28.97 14.3379C29.559 14.9259 29.853 15.2199 29.961 15.5599C29.9769 15.6097 29.9899 15.6605 30 15.7119L23.228 12.8478H23.217C23.19 12.8368 23.158 12.8238 23.158 12.7958C23.158 12.7678 23.19 12.7549 23.217 12.7439H23.225L26.136 11.5069ZM29.884 16.6209C29.6263 17.0067 29.319 17.357 28.97 17.6629L25.776 20.8529L21.644 19.9929H21.622C21.586 19.9869 21.546 19.9809 21.546 19.9469C21.53 19.7766 21.4793 19.6115 21.3969 19.4616C21.3145 19.3118 21.2022 19.1805 21.067 19.0759C21.05 19.0589 21.055 19.0329 21.059 19.0079V18.9979L21.837 14.2319V14.2158C21.837 14.1798 21.848 14.1369 21.882 14.1369C22.0485 14.1161 22.2092 14.0625 22.3548 13.9791C22.5004 13.8956 22.628 13.7841 22.73 13.6509C22.7351 13.6428 22.7419 13.6359 22.75 13.6308C22.7753 13.6242 22.8023 13.6278 22.825 13.6409L29.884 16.6209ZM25.041 21.5869L19.788 26.8349L20.688 21.3139V21.2859C20.695 21.2679 20.714 21.2609 20.733 21.2529H20.742C20.9387 21.169 21.1128 21.0398 21.25 20.8759C21.2662 20.8538 21.2895 20.8379 21.316 20.8309C21.323 20.8299 21.33 20.8299 21.337 20.8309L25.041 21.5869ZM18.676 27.9449L18.084 28.5369L11.538 19.0859L11.53 19.0759C11.5181 19.0643 11.5113 19.0484 11.511 19.0319C11.5133 19.0199 11.5188 19.0088 11.527 18.9999L11.534 18.9909C11.554 18.9619 11.571 18.9329 11.59 18.9009L11.605 18.8759C11.6132 18.8581 11.6264 18.8432 11.643 18.8329C11.6602 18.8268 11.6788 18.8268 11.696 18.8329L18.949 20.3269C18.9693 20.3302 18.9886 20.3384 19.005 20.3509C19.0126 20.3596 19.0175 20.3704 19.019 20.3819V20.3959C19.0712 20.5843 19.1658 20.7584 19.2956 20.9047C19.4255 21.051 19.587 21.1656 19.768 21.2399C19.788 21.2499 19.779 21.2729 19.768 21.2969C19.7634 21.3075 19.7598 21.3186 19.757 21.3299C19.67 21.8829 18.886 26.6569 18.676 27.9449V27.9449ZM17.439 29.1799C17.1724 29.5025 16.8355 29.7597 16.454 29.9319C16.167 30.0228 15.859 30.0228 15.572 29.9319C15.231 29.8239 14.937 29.5319 14.348 28.9419L7.774 22.3749L9.491 19.7139C9.49812 19.7006 9.50801 19.689 9.52 19.6799C9.53047 19.6749 9.54191 19.6723 9.5535 19.6723C9.56509 19.6723 9.57653 19.6749 9.587 19.6799C9.75574 19.7319 9.93143 19.7578 10.108 19.7569C10.3401 19.7555 10.5697 19.709 10.784 19.6199C10.7923 19.6147 10.8018 19.612 10.8115 19.612C10.8212 19.612 10.8307 19.6147 10.839 19.6199C10.8465 19.6274 10.8535 19.6354 10.86 19.6439L17.439 29.1799ZM7.139 21.7419L5.632 20.2349L8.611 18.9659C8.61894 18.9644 8.62706 18.9644 8.635 18.9659C8.66 18.9659 8.674 18.9909 8.688 19.0139L8.698 19.0299C8.726 19.0729 8.755 19.1109 8.783 19.1479L8.792 19.1599C8.8 19.1719 8.792 19.1839 8.786 19.1969L7.139 21.7419ZM4.965 19.5689L3.057 17.6629C2.732 17.3389 2.497 17.1038 2.334 16.9008L8.134 18.1009H8.156C8.192 18.1069 8.232 18.1129 8.232 18.1469C8.232 18.1809 8.189 18.1999 8.152 18.2149L8.135 18.2219L4.965 19.5689ZM2 15.9208C2.00706 15.7979 2.02923 15.6764 2.066 15.5589C2.174 15.2189 2.466 14.9249 3.057 14.3369L5.5 11.8998C5.9 12.4898 8.561 16.3259 8.871 16.7699L8.881 16.7829C8.901 16.8099 8.923 16.8389 8.901 16.8609C8.78952 16.9771 8.69248 17.1063 8.612 17.2459C8.60377 17.2635 8.59142 17.2789 8.576 17.2909C8.56607 17.2949 8.55494 17.2949 8.545 17.2909L2 15.9208ZM6.152 11.2459L9.435 7.96585C9.744 8.10085 10.867 8.57485 11.871 8.99885C12.632 9.31985 13.325 9.61285 13.542 9.70585C13.5528 9.70859 13.5629 9.71357 13.5717 9.72045C13.5805 9.72734 13.5878 9.73599 13.593 9.74585C13.5975 9.76017 13.5975 9.77553 13.593 9.78985C13.5711 9.89343 13.5601 9.99899 13.56 10.1048C13.5602 10.4861 13.7095 10.8522 13.976 11.1249C13.998 11.1459 13.976 11.1779 13.957 11.2059L13.947 11.2208L10.614 16.3788C10.6065 16.393 10.5959 16.4053 10.583 16.4149C10.573 16.4191 10.5623 16.4212 10.5515 16.4212C10.5407 16.4212 10.53 16.4191 10.52 16.4149C10.3894 16.3806 10.255 16.3625 10.12 16.3609C9.9919 16.3651 9.86442 16.3804 9.739 16.4068C9.73294 16.4098 9.72626 16.4114 9.7195 16.4114C9.71274 16.4114 9.70606 16.4098 9.7 16.4068C9.68697 16.3965 9.67581 16.384 9.667 16.3699L6.152 11.2459ZM10.1 7.29985L14.351 3.05385C14.94 2.46585 15.234 2.17185 15.575 2.06385C15.862 1.97286 16.17 1.97286 16.457 2.06385C16.798 2.17185 17.092 2.46385 17.681 3.05385L18.602 3.97385L15.577 8.65485C15.5692 8.66825 15.5591 8.68011 15.547 8.68985C15.5366 8.69454 15.5254 8.69697 15.514 8.69697C15.5026 8.69697 15.4914 8.69454 15.481 8.68985C15.3318 8.64672 15.1773 8.62484 15.022 8.62485C14.6782 8.62772 14.3454 8.74606 14.077 8.96085C14.057 8.97985 14.028 8.96785 14.003 8.96085C13.608 8.78585 10.537 7.48885 10.1 7.29985V7.29985ZM19.243 4.61485L22.035 7.40385L21.363 11.5639V11.5749C21.3627 11.5845 21.3606 11.5939 21.357 11.6028C21.35 11.6178 21.336 11.6208 21.321 11.6238H21.305C21.1669 11.6674 21.0369 11.7333 20.92 11.8189L20.906 11.8319C20.9025 11.8368 20.8981 11.8409 20.8929 11.844C20.8877 11.8471 20.882 11.8491 20.876 11.8499C20.8654 11.8507 20.8548 11.849 20.845 11.8449L16.592 10.0399H16.583C16.556 10.0289 16.524 10.0159 16.524 9.98785C16.4999 9.75702 16.4258 9.5342 16.307 9.33485L16.298 9.31985C16.277 9.28585 16.255 9.25085 16.272 9.21985L19.243 4.61485ZM16.367 10.8998L20.354 12.5869C20.3771 12.5932 20.3968 12.6082 20.409 12.6288C20.413 12.6422 20.413 12.6565 20.409 12.6699C20.3961 12.7331 20.3891 12.7973 20.388 12.8619V12.9739C20.388 13.0009 20.359 13.0129 20.333 13.0239H20.324C19.693 13.2929 11.456 16.8009 11.444 16.8009C11.4372 16.8017 11.4303 16.8011 11.4237 16.799C11.4171 16.7969 11.4111 16.7935 11.406 16.7888C11.384 16.7678 11.406 16.7359 11.425 16.7079L11.435 16.6929L14.712 11.6259L14.718 11.6168C14.737 11.5858 14.759 11.5519 14.794 11.5519L14.827 11.5569C14.8951 11.5686 14.9639 11.5753 15.033 11.5768C15.277 11.5778 15.5175 11.5185 15.7331 11.4042C15.9487 11.29 16.1328 11.1243 16.269 10.9219C16.2753 10.9109 16.2834 10.9011 16.293 10.8928C16.3049 10.8878 16.318 10.8857 16.3309 10.887C16.3438 10.8882 16.3562 10.8926 16.367 10.8998V10.8998ZM11.8 17.6109L20.777 13.7868C20.7867 13.7877 20.7957 13.7924 20.802 13.7999C20.843 13.8399 20.8864 13.8773 20.932 13.9118L20.952 13.9249C20.97 13.9359 20.989 13.9468 20.99 13.9658V13.9839L20.22 18.6999V18.7189C20.22 18.7559 20.21 18.7979 20.175 18.7979C19.9707 18.812 19.7729 18.8756 19.5986 18.9833C19.4244 19.091 19.279 19.2394 19.175 19.4159V19.4219C19.1669 19.4391 19.1541 19.4537 19.138 19.4639C19.1214 19.4689 19.1036 19.4689 19.087 19.4639L11.928 17.9889C11.928 17.9889 11.808 17.6119 11.8 17.6109Z" fill="url(#paint0_linear_102_88)"/>
<defs>
<linearGradient id="paint0_linear_102_88" x1="16" y1="1.99985" x2="16" y2="29.9998" gradientUnits="userSpaceOnUse">
<stop stop-color="#21C6B7"/>
<stop offset="1" stop-color="#4C9BBF"/>
</linearGradient>
</defs>
</svg>
