<svg width="27" height="27" viewBox="0 0 27 27" fill="none" xmlns="http://www.w3.org/2000/svg">
<g clip-path="url(#clip0_102_79)">
<path d="M20.0382 25.3166C19.9378 25.3697 19.9462 25.3866 20.0424 25.3377C20.0721 25.3256 20.0993 25.3081 20.1226 25.2862C20.1226 25.2685 20.1226 25.2685 20.0382 25.3166V25.3166ZM20.2407 25.2069C20.1926 25.2465 20.1926 25.2465 20.25 25.2204C20.2712 25.2105 20.2906 25.197 20.3074 25.1807C20.3074 25.1579 20.2939 25.163 20.2407 25.2069V25.2069ZM20.3723 25.1276C20.3243 25.1672 20.3243 25.1672 20.3816 25.1411C20.4029 25.1309 20.4223 25.1172 20.439 25.1006C20.439 25.0795 20.4255 25.0837 20.3723 25.1276ZM20.5057 25.0491C20.4576 25.0888 20.4576 25.0888 20.5133 25.0618C20.5445 25.0449 20.5706 25.0272 20.5706 25.0221C20.5706 25.001 20.5571 25.0052 20.5057 25.0491ZM20.6854 24.9301C20.5934 24.9917 20.5613 25.0314 20.6457 24.9875C20.7022 24.9529 20.7984 24.877 20.7816 24.877C20.7453 24.8905 20.7149 24.9133 20.6845 24.9301H20.6854ZM12.6166 0.00913127C12.555 0.01335 12.3702 0.030225 12.2082 0.043725C8.37084 0.39135 4.78069 2.45685 2.50509 5.63863C1.24754 7.38372 0.430109 9.40674 0.122344 11.5356C0.0135 12.2781 0 12.4975 0 13.5041C0 14.5098 0.0135 14.7258 0.122344 15.4683C0.85725 20.5401 4.46513 24.7977 9.3555 26.3755C10.2355 26.6564 11.1577 26.8505 12.2082 26.9695C12.6166 27.0134 14.3826 27.0134 14.7909 26.9695C16.6067 26.767 18.1398 26.3189 19.6568 25.5452C19.8897 25.4271 19.9336 25.3959 19.9024 25.3697C19.1623 24.3915 18.4285 23.4085 17.701 22.4208L15.5436 19.5074L12.841 15.5038C11.9421 14.1633 11.0339 12.829 10.1166 11.501C10.1073 11.501 10.0955 13.2805 10.0904 15.4506C10.0811 19.2517 10.0811 19.4061 10.033 19.4938C9.98691 19.5999 9.90428 19.6858 9.80016 19.736C9.71662 19.7757 9.64153 19.7841 9.24244 19.7841H8.78597L8.667 19.7098C8.59249 19.662 8.53194 19.5954 8.4915 19.5166L8.43413 19.3977L8.43834 14.1065L8.44763 8.81535L8.53116 8.70988C8.5845 8.64504 8.65018 8.59141 8.72438 8.5521C8.83491 8.49894 8.87878 8.49051 9.33525 8.49051C9.87103 8.49051 9.95962 8.5116 10.1005 8.66601C11.1953 10.2943 12.2807 11.929 13.3566 13.5699C15.1107 16.2294 17.5053 19.8583 18.6823 21.6387L20.8229 24.8778L20.9284 24.8078C21.9571 24.1242 22.8894 23.3054 23.7001 22.3736C25.4007 20.4271 26.5042 18.0317 26.8785 15.4742C26.9873 14.7317 27.0008 14.5115 27.0008 13.5058C27.0008 12.4992 26.9873 12.284 26.8785 11.5415C26.1436 6.46973 22.5357 2.21216 17.6453 0.633506C16.7314 0.344033 15.7907 0.147015 14.8373 0.0454125C14.5817 0.0192563 12.8368 -0.0119625 12.6174 0.0108188L12.6166 0.00913127ZM18.1406 8.1741C18.2034 8.20493 18.2594 8.24797 18.3053 8.30071C18.3512 8.35344 18.3862 8.41481 18.4081 8.48123C18.4309 8.5521 18.4351 10.0194 18.4309 13.3244L18.4216 18.0696L17.5871 16.7871L16.7476 15.5038V12.0587C16.7476 9.82532 16.7569 8.57319 16.7687 8.5116C16.81 8.37037 16.9047 8.25081 17.0328 8.17832C17.1374 8.12516 17.1779 8.12094 17.5956 8.12094C17.9862 8.12094 18.052 8.12516 18.1398 8.1741H18.1406Z" fill="black"/>
</g>
<defs>
<clipPath id="clip0_102_79">
<rect width="27" height="27" fill="white"/>
</clipPath>
</defs>
</svg>
