<svg width="28" height="28" viewBox="0 0 28 28" fill="none" xmlns="http://www.w3.org/2000/svg">
<g clip-path="url(#clip0_102_101)">
<path d="M27.8855 15.7777C28.8654 8.10709 23.4482 1.0943 15.7917 0.114516C8.13509 -0.865375 1.0943 4.55175 0.114516 12.2083C-0.865375 19.8649 4.55175 26.8917 12.2083 27.8855C19.8789 28.8654 26.8917 23.4482 27.8855 15.7777Z" fill="#FF6C37"/>
<path d="M19.053 8.98909L13.146 14.8961L11.4802 13.2303C17.2892 7.42142 17.8631 7.92531 19.0529 8.98909H19.053Z" fill="white"/>
<path d="M13.146 15.0356C13.104 15.0356 13.076 15.0216 13.048 14.9936L11.3684 13.328C11.3551 13.3153 11.3446 13.3001 11.3373 13.2833C11.3301 13.2665 11.3264 13.2483 11.3264 13.23C11.3264 13.2117 11.3301 13.1936 11.3373 13.1768C11.3446 13.1599 11.3551 13.1447 11.3684 13.1321C17.2753 7.22507 17.8912 7.78496 19.137 8.90474C19.165 8.93274 19.179 8.96074 19.179 9.00274C19.179 9.04474 19.165 9.07274 19.137 9.10074L13.23 14.9936C13.216 15.0216 13.174 15.0356 13.146 15.0356V15.0356ZM11.6764 13.23L13.146 14.6998L18.8431 9.00274C17.8073 8.07896 17.1073 7.79896 11.6764 13.2301V13.23Z" fill="#FF6C37"/>
<path d="M14.8399 16.5894L13.2302 14.9797L19.1371 9.07275C20.7189 10.6685 18.3533 13.258 14.8399 16.5894Z" fill="white"/>
<path d="M14.8397 16.7293C14.7977 16.7293 14.7697 16.7153 14.7418 16.6873L13.132 15.0775C13.104 15.0495 13.104 15.0215 13.104 14.9795C13.104 14.9376 13.118 14.9095 13.146 14.8816L19.053 8.97463C19.0657 8.96136 19.0809 8.95079 19.0977 8.94356C19.1146 8.93634 19.1327 8.93262 19.151 8.93262C19.1693 8.93262 19.1875 8.93634 19.2043 8.94356C19.2212 8.95079 19.2364 8.96136 19.249 8.97463C19.4277 9.14002 19.5689 9.34179 19.6631 9.56634C19.7573 9.7909 19.8022 10.033 19.7949 10.2764C19.7669 11.8302 18.0033 13.8038 14.9518 16.6873C14.9098 16.7153 14.8678 16.7293 14.8398 16.7293H14.8397ZM13.426 14.9795C14.3218 15.8894 14.6998 16.2533 14.8397 16.3933C17.1912 14.1538 19.4728 11.8582 19.4869 10.2764C19.5009 9.91252 19.3609 9.54852 19.1229 9.26863L13.426 14.9795V14.9795Z" fill="#FF6C37"/>
<path d="M11.5084 13.2721L12.6982 14.4619C12.7262 14.4899 12.7262 14.5179 12.6982 14.5459C12.6842 14.5599 12.6842 14.5599 12.6702 14.5599L10.2067 15.0918C10.0807 15.1058 9.96865 15.0218 9.94065 14.8959C9.92665 14.8259 9.95465 14.7559 9.99665 14.7139L11.4244 13.2861C11.4524 13.2581 11.4944 13.2441 11.5084 13.2721V13.2721Z" fill="white"/>
<path d="M10.1647 15.2316C9.95467 15.2316 9.80078 15.0636 9.80078 14.8537C9.80078 14.7557 9.84278 14.6577 9.91278 14.5877L11.3405 13.1599C11.4245 13.0899 11.5365 13.0899 11.6205 13.1599L12.8102 14.3497C12.8942 14.4197 12.8942 14.5457 12.8102 14.6297C12.7822 14.6577 12.7542 14.6717 12.7122 14.6857L10.2487 15.2176C10.2207 15.2176 10.1927 15.2316 10.1647 15.2316ZM11.4665 13.4259L10.0947 14.7977C10.0667 14.8257 10.0527 14.8677 10.0807 14.9097C10.0947 14.9517 10.1367 14.9656 10.1787 14.9517L12.4882 14.4477L11.4665 13.4259V13.4259Z" fill="#FF6C37"/>
<path d="M22.1744 5.71372C21.2787 4.84583 19.8369 4.87383 18.9691 5.78372C18.1012 6.6935 18.1292 8.12128 19.0391 8.98906C19.3982 9.33606 19.8621 9.55445 20.3583 9.61017C20.8546 9.66588 21.3553 9.55579 21.7824 9.29706L20.1866 7.70128L22.1743 5.71372H22.1744Z" fill="white"/>
<path d="M20.6068 9.75897C19.277 9.75897 18.1992 8.68119 18.1992 7.35141C18.1992 6.02163 19.277 4.94385 20.6068 4.94385C21.2226 4.94385 21.8246 5.18185 22.2726 5.61574C22.3005 5.64374 22.3145 5.67174 22.3145 5.71374C22.3145 5.75574 22.3005 5.78374 22.2725 5.81174L20.3828 7.7013L21.8666 9.18508C21.9226 9.24108 21.9226 9.32508 21.8666 9.38108L21.8386 9.40908C21.4746 9.63297 21.0407 9.75908 20.6068 9.75908V9.75897ZM20.6068 5.23785C19.431 5.23785 18.4791 6.18963 18.4931 7.36541C18.4931 8.54119 19.445 9.49308 20.6208 9.47908C20.9427 9.47908 21.2647 9.40908 21.5586 9.25508L20.0889 7.7993C20.0609 7.7713 20.0469 7.7433 20.0469 7.7013C20.0469 7.65941 20.0609 7.6313 20.0889 7.60341L21.9646 5.72763C21.5866 5.40574 21.1107 5.23785 20.6068 5.23785V5.23785Z" fill="#FF6C37"/>
<path d="M22.2166 5.75554L22.1886 5.72754L20.187 7.7011L21.7687 9.28288C21.9227 9.18488 22.0766 9.07288 22.2026 8.94688C22.4146 8.73917 22.5834 8.49143 22.699 8.21802C22.8146 7.94461 22.8748 7.65098 22.8761 7.35413C22.8774 7.05729 22.8198 6.76314 22.7066 6.48873C22.5934 6.21432 22.4268 5.96511 22.2166 5.75554V5.75554Z" fill="white"/>
<path d="M21.7825 9.43709C21.7405 9.43709 21.7125 9.42309 21.6845 9.39509L20.0888 7.79931C20.0609 7.77131 20.0469 7.74331 20.0469 7.70131C20.0469 7.65942 20.0609 7.63131 20.0889 7.60342L22.0764 5.61575C22.0891 5.60247 22.1043 5.5919 22.1211 5.58468C22.138 5.57745 22.1561 5.57373 22.1744 5.57373C22.1928 5.57373 22.2109 5.57745 22.2278 5.58468C22.2446 5.5919 22.2598 5.60247 22.2724 5.61575L22.3144 5.64375C23.2523 6.58153 23.2523 8.09331 22.3284 9.04509C22.1884 9.18509 22.0345 9.31109 21.8665 9.40909C21.8245 9.42309 21.7965 9.43709 21.7825 9.43709V9.43709ZM20.3828 7.70131L21.7965 9.11509C21.9085 9.04509 22.0205 8.94709 22.1044 8.8632C22.9023 8.06531 22.9443 6.76353 22.1744 5.92364L20.3829 7.70131H20.3828Z" fill="#FF6C37"/>
<path d="M19.2909 9.24071C19.1294 9.07938 18.9104 8.98877 18.682 8.98877C18.4537 8.98877 18.2347 9.07938 18.0732 9.24071L12.7961 14.5177L13.6779 15.3996L19.2629 10.5005C19.6269 10.1925 19.6548 9.6466 19.3469 9.28271C19.3189 9.26871 19.3049 9.25471 19.2909 9.24071V9.24071Z" fill="white"/>
<path d="M13.6639 15.54C13.6219 15.54 13.5939 15.526 13.5659 15.498L12.6841 14.6161C12.6708 14.6034 12.6603 14.5882 12.653 14.5714C12.6458 14.5545 12.6421 14.5364 12.6421 14.5181C12.6421 14.4998 12.6458 14.4816 12.653 14.4648C12.6603 14.4479 12.6708 14.4327 12.6841 14.4201L17.9611 9.14307C18.0538 9.04991 18.1639 8.97598 18.2852 8.92554C18.4065 8.87509 18.5366 8.84912 18.668 8.84912C18.7994 8.84912 18.9295 8.87509 19.0508 8.92554C19.1721 8.97598 19.2823 9.04991 19.3749 9.14307C19.4681 9.23571 19.542 9.34586 19.5924 9.46717C19.6429 9.58848 19.6688 9.71857 19.6688 9.84996C19.6688 9.98134 19.6429 10.1114 19.5924 10.2327C19.542 10.3541 19.4681 10.4642 19.3749 10.5568L19.3329 10.5988L13.7479 15.498C13.7339 15.526 13.7059 15.54 13.6639 15.54V15.54ZM12.992 14.5181L13.6779 15.204L19.1649 10.3888C19.4729 10.1368 19.5009 9.67496 19.2489 9.36707C18.997 9.05907 18.535 9.03107 18.2271 9.28307C18.2131 9.29707 18.1991 9.31106 18.1711 9.32506L12.992 14.5182V14.5181Z" fill="#FF6C37"/>
<path d="M8.75083 20.5228C8.69494 20.5508 8.66694 20.6068 8.68083 20.6628L8.91883 21.6705C8.97483 21.8105 8.89083 21.9785 8.73683 22.0205C8.62494 22.0625 8.49894 22.0205 8.42894 21.9365L6.88916 20.4108L11.9143 15.3857L13.6501 15.4137L14.8258 16.5895C14.5458 16.8274 12.8522 18.4652 8.75083 20.5228V20.5228Z" fill="white"/>
<path d="M8.63902 22.1603C8.52702 22.1603 8.41502 22.1184 8.34502 22.0344L6.81923 20.5086C6.79134 20.4806 6.77734 20.4526 6.77734 20.4107C6.77734 20.3687 6.79134 20.3407 6.81934 20.3127L11.8444 15.2876C11.8724 15.2596 11.9144 15.2456 11.9424 15.2456L13.6781 15.2736C13.72 15.2736 13.7481 15.2876 13.776 15.3156L14.9518 16.4914C14.9798 16.5194 14.9938 16.5614 14.9938 16.6034C14.9938 16.6454 14.9798 16.6734 14.9378 16.7014L14.8398 16.7853C13.3561 18.0871 11.3405 19.3888 8.83491 20.6346L9.07291 21.6285C9.11491 21.8104 9.03091 22.0064 8.86291 22.1043C8.77891 22.1464 8.70891 22.1604 8.63902 22.1604V22.1603ZM7.09923 20.4107L8.54102 21.8384C8.58302 21.9084 8.66702 21.9364 8.73691 21.8944C8.80691 21.8524 8.83491 21.7684 8.79291 21.6984L8.55502 20.6906C8.52702 20.5646 8.58302 20.4526 8.69502 20.3967C11.1725 19.1509 13.1741 17.8632 14.6439 16.5894L13.6081 15.5536L11.9984 15.5256L7.09923 20.4107V20.4107Z" fill="#FF6C37"/>
<path d="M5.69963 21.6149L6.90331 20.4111L8.69509 22.2027L5.83952 22.0068C5.71352 21.9928 5.62952 21.8808 5.64363 21.7548C5.64363 21.6988 5.65763 21.6428 5.69952 21.6148L5.69963 21.6149Z" fill="white"/>
<path d="M8.69496 22.3287L5.82539 22.1328C5.61539 22.1188 5.47539 21.9368 5.4895 21.7268C5.5035 21.6428 5.5315 21.5589 5.6015 21.5029L6.80528 20.2991C6.81792 20.2859 6.83312 20.2753 6.84995 20.2681C6.86679 20.2609 6.88491 20.2572 6.90323 20.2572C6.92155 20.2572 6.93967 20.2609 6.95651 20.2681C6.97334 20.2753 6.98854 20.2859 7.00117 20.2991L8.79285 22.0907C8.83485 22.1328 8.84885 22.1888 8.82085 22.2447C8.79285 22.3007 8.75085 22.3287 8.69496 22.3287ZM6.90317 20.6071L5.79739 21.7129C5.75539 21.7408 5.75539 21.8108 5.79739 21.8388C5.81139 21.8528 5.82539 21.8668 5.85339 21.8668L8.33096 22.0348L6.90317 20.607V20.6071ZM11.4244 16.0299C11.3404 16.0299 11.2844 15.9599 11.2844 15.8899C11.2844 15.8479 11.2984 15.8199 11.3264 15.7919L12.6842 14.4341C12.6968 14.4208 12.712 14.4103 12.7289 14.403C12.7457 14.3958 12.7639 14.3921 12.7822 14.3921C12.8005 14.3921 12.8187 14.3958 12.8355 14.403C12.8523 14.4103 12.8676 14.4208 12.8802 14.4341L13.762 15.316C13.804 15.358 13.818 15.4 13.804 15.456C13.79 15.498 13.748 15.54 13.692 15.554L11.4524 16.0298H11.4244V16.0299ZM12.7822 14.7281L11.8583 15.6519L13.3701 15.33L12.7822 14.7281V14.7281Z" fill="#FF6C37"/>
<path d="M13.65 15.4138L12.1103 15.7497C11.9983 15.7777 11.8863 15.7077 11.8583 15.5957C11.8443 15.5257 11.8583 15.4557 11.9143 15.3998L12.7682 14.5459L13.65 15.4138V15.4138Z" fill="white"/>
<path d="M12.0824 15.8897C12.0363 15.8901 11.9906 15.8814 11.9479 15.864C11.9053 15.8466 11.8665 15.8208 11.8339 15.7882C11.8013 15.7556 11.7756 15.7168 11.7581 15.6742C11.7407 15.6315 11.732 15.5858 11.7324 15.5397C11.7324 15.4418 11.7744 15.3578 11.8304 15.2878L12.6843 14.4339C12.697 14.4206 12.7122 14.41 12.729 14.4028C12.7459 14.3956 12.764 14.3919 12.7823 14.3919C12.8007 14.3919 12.8188 14.3956 12.8356 14.4028C12.8525 14.41 12.8677 14.4206 12.8803 14.4339L13.7621 15.3158C13.8041 15.3578 13.8181 15.3998 13.8041 15.4558C13.7901 15.4978 13.7481 15.5398 13.6921 15.5538L12.1524 15.8897H12.0824ZM12.7823 14.7279L12.0264 15.4837C11.9984 15.5118 11.9984 15.5398 12.0124 15.5677C12.0264 15.5957 12.0544 15.6097 12.0964 15.6097L13.3842 15.3297L12.7823 14.7279V14.7279ZM22.2306 7.09921C22.2026 7.01532 22.1046 6.97332 22.0206 7.00132C21.9367 7.02932 21.8947 7.12721 21.9227 7.21132C21.9227 7.22521 21.9367 7.23921 21.9367 7.25321C22.0207 7.42121 21.9927 7.63121 21.8807 7.7851C21.8247 7.8551 21.8387 7.9531 21.8947 8.0091C21.9647 8.0651 22.0626 8.0511 22.1186 7.9811C22.3286 7.7151 22.3706 7.37921 22.2306 7.09921V7.09921Z" fill="#FF6C37"/>
</g>
<defs>
<clipPath id="clip0_102_101">
<rect width="28" height="28" fill="white"/>
</clipPath>
</defs>
</svg>
