<svg width="32" height="32" viewBox="0 0 32 32" fill="none" xmlns="http://www.w3.org/2000/svg">
<path fill-rule="evenodd" clip-rule="evenodd" d="M16 2C18.7689 2 21.4757 2.82109 23.778 4.35943C26.0803 5.89777 27.8747 8.08427 28.9343 10.6424C29.9939 13.2006 30.2712 16.0155 29.731 18.7313C29.1908 21.447 27.8574 23.9416 25.8995 25.8995C23.9416 27.8574 21.447 29.1908 18.7313 29.731C16.0155 30.2712 13.2006 29.9939 10.6424 28.9343C8.08427 27.8747 5.89777 26.0803 4.35943 23.778C2.82109 21.4757 2 18.7689 2 16C2 12.287 3.475 8.72601 6.1005 6.1005C8.72601 3.475 12.287 2 16 2V2Z" fill="#CC6699"/>
<path d="M24.7819 7.99191C24.1479 5.50591 20.0249 4.69191 16.1229 6.07391C13.6793 6.89506 11.4215 8.19011 9.47895 9.88491C7.32995 11.8949 6.98695 13.6449 7.12795 14.3759C7.62795 16.9559 11.1609 18.6419 12.6139 19.8929V19.8999C12.1859 20.1109 9.04995 21.6999 8.31395 23.3199C7.53995 25.0319 8.43695 26.2599 9.03195 26.4249C9.92527 26.64 10.8635 26.57 11.715 26.2248C12.5665 25.8795 13.2886 25.2764 13.7799 24.4999C14.186 23.8708 14.44 23.1559 14.522 22.4116C14.6039 21.6674 14.5114 20.9143 14.2519 20.2119C14.9518 20.0341 15.6793 19.9923 16.3949 20.0889C18.8509 20.3759 19.3329 21.9089 19.2409 22.5509C19.1977 22.7794 19.1057 22.996 18.9713 23.1858C18.8369 23.3756 18.6631 23.5342 18.4619 23.6509C18.2899 23.7579 18.2369 23.7939 18.2519 23.8739C18.2729 23.9889 18.3519 23.9849 18.4989 23.9599C18.868 23.8437 19.1932 23.6184 19.4317 23.3136C19.6702 23.0089 19.8108 22.6391 19.8349 22.2529C19.8939 20.7529 18.4529 19.0669 15.9009 19.1099C15.1597 19.0887 14.4201 19.1901 13.7119 19.4099C13.6765 19.3694 13.6405 19.3294 13.6039 19.2899C12.0259 17.6069 9.10995 16.4159 9.23295 14.1529C9.27795 13.3299 9.56395 11.1639 14.8329 8.53591C19.1529 6.38291 22.6109 6.97591 23.2089 8.28891C24.0629 10.1649 21.3609 13.6499 16.8749 14.1529C16.3791 14.2536 15.867 14.2413 15.3766 14.117C14.8861 13.9927 14.43 13.7596 14.0419 13.4349C13.8059 13.1749 13.7709 13.1639 13.6829 13.2119C13.5399 13.2909 13.6309 13.5209 13.6829 13.6569C13.8547 13.9665 14.0866 14.2386 14.3649 14.4574C14.6433 14.6762 14.9625 14.8372 15.3039 14.9309C17.0677 15.3142 18.9074 15.1322 20.5619 14.4109C23.2829 13.3619 25.4049 10.4369 24.7819 7.99191V7.99191ZM13.2179 20.6629C13.4166 21.3476 13.4065 22.076 13.1889 22.7549C13.1656 22.8256 13.1399 22.8956 13.1119 22.9649C13.0839 23.0342 13.0536 23.1009 13.0209 23.1649C12.8527 23.5093 12.6347 23.827 12.3739 24.1079C11.5609 24.9949 10.4239 25.3309 9.93695 25.0479C9.41095 24.7429 9.67395 23.4919 10.6169 22.4949C11.3415 21.7784 12.1769 21.1834 13.0909 20.7329L13.2179 20.6629Z" fill="white"/>
</svg>
