<svg width="32" height="32" viewBox="0 0 32 32" fill="none" xmlns="http://www.w3.org/2000/svg">
<path d="M28.688 2H3.312C2.5874 2 2 2.5874 2 3.312V28.688C2 29.4126 2.5874 30 3.312 30H28.688C29.4126 30 30 29.4126 30 28.688V3.312C30 2.5874 29.4126 2 28.688 2Z" fill="#3178C6"/>
<path fill-rule="evenodd" clip-rule="evenodd" d="M18.245 23.7591V26.8271C18.8024 27.1022 19.3965 27.2959 20.009 27.4021C20.7168 27.5328 21.4352 27.597 22.155 27.5941C22.8565 27.5974 23.5564 27.5267 24.243 27.3831C24.8595 27.2585 25.4477 27.0212 25.978 26.6831C26.4703 26.3653 26.8761 25.9303 27.159 25.4171C27.6656 24.3544 27.7324 23.1348 27.345 22.0231C27.1815 21.6074 26.9379 21.2279 26.628 20.9061C26.2954 20.564 25.9175 20.2689 25.505 20.0291C25.03 19.7509 24.5365 19.5057 24.028 19.2951C23.628 19.1291 23.268 18.9678 22.948 18.8111C22.6638 18.675 22.3918 18.5148 22.135 18.3321C21.9339 18.1911 21.7592 18.0158 21.619 17.8141C21.4978 17.631 21.4348 17.4156 21.438 17.1961C21.4353 16.9941 21.4916 16.7956 21.6 16.6251C21.7177 16.4466 21.8747 16.2975 22.059 16.1891C22.2843 16.0565 22.5294 15.9609 22.785 15.9061C23.0988 15.8364 23.4195 15.8028 23.741 15.8061C24.0113 15.807 24.2813 15.8264 24.549 15.8641C24.8381 15.9032 25.1241 15.9623 25.405 16.0411C25.6907 16.1203 25.9701 16.2206 26.241 16.3411C26.5038 16.4583 26.7552 16.5995 26.992 16.7631V13.9001C26.4991 13.7136 25.9879 13.5796 25.467 13.5001C24.8379 13.4086 24.2027 13.3654 23.567 13.3711C22.8721 13.3674 22.1792 13.4462 21.503 13.6061C20.8917 13.7458 20.3105 13.994 19.787 14.3391C19.3007 14.6631 18.8991 15.0989 18.616 15.6101C18.316 16.1778 18.1675 16.8133 18.185 17.4551C18.1628 18.3039 18.4424 19.133 18.974 19.7951C19.6262 20.5292 20.4486 21.092 21.369 21.4341C21.789 21.6074 22.1807 21.7771 22.544 21.9431C22.8718 22.089 23.1869 22.2619 23.486 22.4601C23.7272 22.617 23.9391 22.815 24.112 23.0451C24.264 23.2538 24.3447 23.5059 24.342 23.7641C24.3434 23.9576 24.2937 24.148 24.198 24.3161C24.0916 24.4968 23.9422 24.6483 23.763 24.7571C23.5387 24.8938 23.2934 24.9925 23.037 25.0491C22.7029 25.1238 22.3613 25.159 22.019 25.1541C21.3473 25.1529 20.681 25.0344 20.05 24.8041C19.3908 24.5662 18.7795 24.2123 18.245 23.7591V23.7591ZM13.091 16.1211H17.091V13.5941H5.93799V16.1211H9.91999V27.3751H13.091V16.1211Z" fill="white"/>
</svg>
